BenchTwelve-Regular.ufo
<glyph name="dollar" format="1">
  <advance width="2048"/>
  <unicode hex="0024"/>
  <outline>
    <contour>
      <point x="947" y="831" type="curve"/>
      <point x="947" y="1313" type="line"/>
      <point x="470" y="1307"/>
      <point x="354" y="1201"/>
      <point x="354" y="1067" type="curve" smooth="yes"/>
      <point x="354" y="924"/>
      <point x="412" y="851"/>
    </contour>
    <contour>
      <point x="1039" y="123" type="line"/>
      <point x="1544" y="129"/>
      <point x="1626" y="235"/>
      <point x="1626" y="410" type="curve" smooth="yes"/>
      <point x="1626" y="569"/>
      <point x="1560" y="652"/>
      <point x="1039" y="653" type="curve"/>
    </contour>
    <contour>
      <point x="1005" y="-197" type="curve" smooth="yes"/>
      <point x="981" y="-197" type="line" smooth="yes"/>
      <point x="962" y="-197"/>
      <point x="947" y="-183"/>
      <point x="947" y="-137" type="curve" smooth="yes"/>
      <point x="947" y="-41" type="line"/>
      <point x="650" y="-40"/>
      <point x="457" y="-7"/>
      <point x="187" y="98" type="curve"/>
      <point x="161" y="107"/>
      <point x="146" y="134"/>
      <point x="145" y="164" type="curve" smooth="yes"/>
      <point x="145" y="172"/>
      <point x="155" y="213"/>
      <point x="155" y="213" type="curve"/>
      <point x="170" y="245"/>
      <point x="192" y="256"/>
      <point x="222" y="258" type="curve"/>
      <point x="305" y="253"/>
      <point x="459" y="137"/>
      <point x="947" y="122" type="curve"/>
      <point x="947" y="653" type="line"/>
      <point x="428" y="663"/>
      <point x="146" y="727"/>
      <point x="146" y="1045" type="curve" smooth="yes"/>
      <point x="146" y="1410"/>
      <point x="519" y="1475"/>
      <point x="947" y="1475" type="curve"/>
      <point x="947" y="1577" type="line" smooth="yes"/>
      <point x="947" y="1622"/>
      <point x="962" y="1638"/>
      <point x="981" y="1638" type="curve" smooth="yes"/>
      <point x="1005" y="1638" type="line" smooth="yes"/>
      <point x="1024" y="1638"/>
      <point x="1039" y="1622"/>
      <point x="1039" y="1577" type="curve" smooth="yes"/>
      <point x="1039" y="1474" type="line"/>
      <point x="1316" y="1469"/>
      <point x="1489" y="1424"/>
      <point x="1676" y="1341" type="curve"/>
      <point x="1701" y="1331"/>
      <point x="1717" y="1305"/>
      <point x="1717" y="1276" type="curve" smooth="yes"/>
      <point x="1717" y="1266"/>
      <point x="1716" y="1260"/>
      <point x="1712" y="1251" type="curve"/>
      <point x="1712" y="1252"/>
      <point x="1705" y="1191"/>
      <point x="1639" y="1191" type="curve"/>
      <point x="1548" y="1202"/>
      <point x="1388" y="1295"/>
      <point x="1039" y="1311" type="curve"/>
      <point x="1039" y="832" type="line"/>
      <point x="1065" y="832" type="line" smooth="yes"/>
      <point x="1591" y="832"/>
      <point x="1829" y="711"/>
      <point x="1829" y="436" type="curve" smooth="yes"/>
      <point x="1829" y="76"/>
      <point x="1576" y="-32"/>
      <point x="1039" y="-40" type="curve"/>
      <point x="1039" y="-137" type="line" smooth="yes"/>
      <point x="1039" y="-183"/>
      <point x="1024" y="-197"/>
    </contour>
  </outline>
</glyph>
<glyph name="slash" format="1">
  <advance width="1231"/>
  <unicode hex="002F"/>
  <outline>
    <contour>
      <point x="95" y="-205" type="line" smooth="yes"/>
      <point x="83" y="-205"/>
      <point x="78" y="-197"/>
      <point x="78" y="-187" type="curve" smooth="yes"/>
      <point x="78" y="-182"/>
      <point x="79" y="-176"/>
      <point x="82" y="-171" type="curve" smooth="yes"/>
      <point x="978" y="1618" type="line" smooth="yes"/>
      <point x="988" y="1638"/>
      <point x="990" y="1648"/>
      <point x="1017" y="1648" type="curve" smooth="yes"/>
      <point x="1149" y="1648" type="line" smooth="yes"/>
      <point x="1161" y="1648"/>
      <point x="1166" y="1640"/>
      <point x="1166" y="1629" type="curve" smooth="yes"/>
      <point x="1166" y="1624"/>
      <point x="1165" y="1618"/>
      <point x="1163" y="1613" type="curve" smooth="yes"/>
      <point x="1162" y="1613"/>
      <point x="277" y="-170"/>
      <point x="277" y="-170" type="curve" smooth="yes"/>
      <point x="259" y="-205"/>
      <point x="253" y="-205"/>
      <point x="227" y="-205" type="curve" smooth="yes"/>
    </contour>
  </outline>
</glyph>
<glyph name="E" format="1">
  <advance width="1690"/>
  <unicode hex="0045"/>
  <outline>
    <contour>
      <point x="227" y="0" type="line" smooth="yes"/>
      <point x="184" y="0"/>
      <point x="160" y="24"/>
      <point x="160" y="67" type="curve" smooth="yes"/>
      <point x="160" y="1361" type="line" smooth="yes"/>
      <point x="160" y="1404"/>
      <point x="184" y="1438"/>
      <point x="227" y="1438" type="curve" smooth="yes"/>
      <point x="1488" y="1438" type="line" smooth="yes"/>
      <point x="1531" y="1438"/>
      <point x="1555" y="1404"/>
      <point x="1555" y="1361" type="curve" smooth="yes"/>
      <point x="1555" y="1360" type="line" smooth="yes"/>
      <point x="1555" y="1317"/>
      <point x="1531" y="1283"/>
      <point x="1488" y="1283" type="curve" smooth="yes"/>
      <point x="401" y="1283" type="line" smooth="yes"/>
      <point x="381" y="1283"/>
      <point x="374" y="1278"/>
      <point x="374" y="1258" type="curve" smooth="yes"/>
      <point x="374" y="848" type="line"/>
      <point x="374" y="833.648"/>
      <point x="380.272" y="822"/>
      <point x="388" y="822" type="curve"/>
      <point x="1376" y="822" type="line" smooth="yes"/>
      <point x="1419" y="822"/>
      <point x="1442" y="788"/>
      <point x="1442" y="745" type="curve" smooth="yes"/>
      <point x="1442" y="742" type="line" smooth="yes"/>
      <point x="1442" y="699"/>
      <point x="1419" y="665"/>
      <point x="1376" y="665" type="curve" smooth="yes"/>
      <point x="394" y="665" type="line"/>
      <point x="382.96" y="665"/>
      <point x="374" y="657.384"/>
      <point x="374" y="648" type="curve"/>
      <point x="374" y="172" type="line"/>
      <point x="374" y="162.616"/>
      <point x="380.272" y="155"/>
      <point x="388" y="155" type="curve"/>
      <point x="1487" y="155" type="line" smooth="yes"/>
      <point x="1530" y="155"/>
      <point x="1553" y="122"/>
      <point x="1553" y="79" type="curve" smooth="yes"/>
      <point x="1553" y="77" type="line" smooth="yes"/>
      <point x="1553" y="34"/>
      <point x="1530" y="0"/>
      <point x="1487" y="0" type="curve" smooth="yes"/>
    </contour>
  </outline>
</glyph>
<glyph name="J" format="1">
  <advance width="1180"/>
  <unicode hex="004A"/>
  <outline>
    <contour>
      <point x="111" y="-231" type="curve" smooth="yes"/>
      <point x="96" y="-231"/>
      <point x="80" y="-213"/>
      <point x="80" y="-177" type="curve" smooth="yes"/>
      <point x="80" y="-115" type="line" smooth="yes"/>
      <point x="80" y="-74"/>
      <point x="98" y="-60"/>
      <point x="111" y="-60" type="curve" smooth="yes"/>
      <point x="506" y="-60"/>
      <point x="812" y="-36"/>
      <point x="812" y="460" type="curve" smooth="yes"/>
      <point x="812" y="1370" type="line" smooth="yes"/>
      <point x="812" y="1414"/>
      <point x="836" y="1438"/>
      <point x="880" y="1438" type="curve" smooth="yes"/>
      <point x="957" y="1438" type="line" smooth="yes"/>
      <point x="1000" y="1438"/>
      <point x="1024" y="1414"/>
      <point x="1024" y="1370" type="curve" smooth="yes"/>
      <point x="1024" y="460" type="line" smooth="yes"/>
      <point x="1024" y="-159"/>
      <point x="571" y="-231"/>
    </contour>
  </outline>
</glyph>
<glyph name="K" format="1">
  <advance width="1604"/>
  <unicode hex="004B"/>
  <outline>
    <contour>
      <point x="227" y="0" type="line" smooth="yes"/>
      <point x="184" y="0"/>
      <point x="160" y="24"/>
      <point x="160" y="67" type="curve" smooth="yes"/>
      <point x="160" y="1371" type="line" smooth="yes"/>
      <point x="160" y="1414"/>
      <point x="184" y="1438"/>
      <point x="227" y="1438" type="curve" smooth="yes"/>
      <point x="308" y="1438" type="line" smooth="yes"/>
      <point x="351" y="1438"/>
      <point x="375" y="1414"/>
      <point x="375" y="1371" type="curve" smooth="yes"/>
      <point x="375" y="760" type="line"/>
      <point x="1101" y="1376" type="line"/>
      <point x="1138" y="1410"/>
      <point x="1166" y="1438"/>
      <point x="1209" y="1438" type="curve" smooth="yes"/>
      <point x="1356" y="1438" type="line" smooth="yes"/>
      <point x="1383" y="1438"/>
      <point x="1401" y="1422"/>
      <point x="1401" y="1402" type="curve" smooth="yes"/>
      <point x="1401" y="1390"/>
      <point x="1395" y="1378"/>
      <point x="1381" y="1365" type="curve" smooth="yes"/>
      <point x="648" y="756" type="line"/>
      <point x="645" y="755"/>
      <point x="641" y="751"/>
      <point x="642" y="746" type="curve"/>
      <point x="641" y="743"/>
      <point x="643" y="739"/>
      <point x="649" y="735" type="curve" smooth="yes"/>
      <point x="1452" y="67" type="line" smooth="yes"/>
      <point x="1467" y="53"/>
      <point x="1474" y="40"/>
      <point x="1474" y="29" type="curve" smooth="yes"/>
      <point x="1474" y="12"/>
      <point x="1457" y="0"/>
      <point x="1431" y="0" type="curve" smooth="yes"/>
      <point x="1276" y="0" type="line" smooth="yes"/>
      <point x="1233" y="0"/>
      <point x="1203" y="32"/>
      <point x="1164" y="67" type="curve"/>
      <point x="375" y="737" type="line"/>
      <point x="375" y="67" type="line" smooth="yes"/>
      <point x="375" y="24"/>
      <point x="351" y="0"/>
      <point x="308" y="0" type="curve" smooth="yes"/>
    </contour>
  </outline>
</glyph>
<glyph name="Q" format="1">
  <advance width="2174"/>
  <unicode hex="0051"/>
  <outline>
    <contour>
      <point x="1642" y="-513" type="line" smooth="yes"/>
      <point x="1626" y="-521"/>
      <point x="1610" y="-526"/>
      <point x="1596" y="-526" type="curve" smooth="yes"/>
      <point x="1576" y="-526"/>
      <point x="1558" y="-517"/>
      <point x="1545" y="-495" type="curve" smooth="yes"/>
      <point x="1288" y="-31" type="line"/>
      <point x="1221" y="-38"/>
      <point x="1154" y="-41"/>
      <point x="1087" y="-41" type="curve" smooth="yes"/>
      <point x="631" y="-41"/>
      <point x="134" y="106"/>
      <point x="134" y="724" type="curve" smooth="yes"/>
      <point x="134" y="1295"/>
      <point x="631" y="1475"/>
      <point x="1087" y="1475" type="curve" smooth="yes"/>
      <point x="1546" y="1475"/>
      <point x="2040" y="1295"/>
      <point x="2040" y="724" type="curve" smooth="yes"/>
      <point x="2040" y="289"/>
      <point x="1795" y="87"/>
      <point x="1490" y="6" type="curve"/>
      <point x="1717" y="-402" type="line" smooth="yes"/>
      <point x="1723" y="-412"/>
      <point x="1726" y="-423"/>
      <point x="1726" y="-432" type="curve" smooth="yes"/>
      <point x="1726" y="-457"/>
      <point x="1706" y="-478"/>
      <point x="1679" y="-493" type="curve" smooth="yes"/>
    </contour>
    <contour>
      <point x="1087" y="121" type="curve" smooth="yes"/>
      <point x="1481" y="121"/>
      <point x="1827" y="229"/>
      <point x="1827" y="724" type="curve" smooth="yes"/>
      <point x="1827" y="1145"/>
      <point x="1494" y="1313"/>
      <point x="1087" y="1313" type="curve" smooth="yes"/>
      <point x="683" y="1313"/>
      <point x="347" y="1145"/>
      <point x="347" y="724" type="curve" smooth="yes"/>
      <point x="347" y="229"/>
      <point x="696" y="121"/>
    </contour>
  </outline>
</glyph>
<glyph name="V" format="1">
  <advance width="1935"/>
  <unicode hex="0056"/>
  <outline>
    <contour>
      <point x="949" y="0" type="line"/>
      <point x="909" y="3"/>
      <point x="874" y="26"/>
      <point x="850" y="67" type="curve" smooth="yes"/>
      <point x="103" y="1371" type="line" smooth="yes"/>
      <point x="94" y="1387"/>
      <point x="90" y="1400"/>
      <point x="90" y="1410" type="curve" smooth="yes"/>
      <point x="90" y="1428"/>
      <point x="104" y="1438"/>
      <point x="131" y="1438" type="curve" smooth="yes"/>
      <point x="243" y="1438" type="line" smooth="yes"/>
      <point x="286" y="1438"/>
      <point x="325" y="1414"/>
      <point x="349" y="1371" type="curve" smooth="yes"/>
      <point x="997" y="181" type="line"/>
      <point x="1591" y="1371" type="line" smooth="yes"/>
      <point x="1612" y="1414"/>
      <point x="1650" y="1438"/>
      <point x="1693" y="1438" type="curve" smooth="yes"/>
      <point x="1796" y="1438" type="line" smooth="yes"/>
      <point x="1825" y="1438"/>
      <point x="1839" y="1427"/>
      <point x="1839" y="1408" type="curve" smooth="yes"/>
      <point x="1839" y="1398"/>
      <point x="1835" y="1386"/>
      <point x="1828" y="1371" type="curve" smooth="yes"/>
      <point x="1138" y="67" type="line" smooth="yes"/>
      <point x="1117" y="26"/>
      <point x="1084" y="3"/>
      <point x="1044" y="0" type="curve"/>
    </contour>
  </outline>
</glyph>
<glyph name="b" format="1">
  <advance width="1671"/>
  <unicode hex="0062"/>
  <outline>
    <contour>
      <point x="884" y="-41" type="curve" smooth="yes"/>
      <point x="686" y="-41"/>
      <point x="469" y="43"/>
      <point x="352" y="207" type="curve" smooth="yes"/>
      <point x="350" y="209"/>
      <point x="348" y="212"/>
      <point x="345" y="212" type="curve" smooth="yes"/>
      <point x="337" y="212"/>
      <point x="324" y="157"/>
      <point x="321" y="146" type="curve" smooth="yes"/>
      <point x="293" y="54"/>
      <point x="265" y="0"/>
      <point x="224" y="0" type="curve" smooth="yes"/>
      <point x="213" y="0" type="line" smooth="yes"/>
      <point x="170" y="0"/>
      <point x="160" y="24"/>
      <point x="160" y="67" type="curve" smooth="yes"/>
      <point x="160" y="1372" type="line" smooth="yes"/>
      <point x="160" y="1415"/>
      <point x="184" y="1438"/>
      <point x="227" y="1438" type="curve" smooth="yes"/>
      <point x="312" y="1438" type="line" smooth="yes"/>
      <point x="355" y="1438"/>
      <point x="379" y="1415"/>
      <point x="379" y="1372" type="curve" smooth="yes"/>
      <point x="379" y="859" type="line" smooth="yes"/>
      <point x="379" y="852"/>
      <point x="380" y="851"/>
      <point x="380" y="851" type="curve"/>
      <point x="382" y="851"/>
      <point x="384" y="855"/>
      <point x="386" y="855" type="curve"/>
      <point x="494" y="989"/>
      <point x="665" y="1053"/>
      <point x="865" y="1053" type="curve" smooth="yes"/>
      <point x="1188" y="1053"/>
      <point x="1542" y="913"/>
      <point x="1542" y="504" type="curve" smooth="yes"/>
      <point x="1542" y="106"/>
      <point x="1176" y="-41"/>
    </contour>
    <contour>
      <point x="852" y="116" type="curve" smooth="yes"/>
      <point x="1108" y="116"/>
      <point x="1323" y="240"/>
      <point x="1323" y="504" type="curve" smooth="yes"/>
      <point x="1323" y="792"/>
      <point x="1091" y="896"/>
      <point x="852" y="896" type="curve" smooth="yes"/>
      <point x="610" y="896"/>
      <point x="379" y="788"/>
      <point x="379" y="504" type="curve" smooth="yes"/>
      <point x="379" y="244"/>
      <point x="594" y="116"/>
    </contour>
  </outline>
</glyph>
<glyph name="e" format="1">
  <advance width="1599"/>
  <unicode hex="0065"/>
  <outline>
    <contour>
      <point x="847" y="-42" type="curve" smooth="yes"/>
      <point x="495" y="-42"/>
      <point x="130" y="84"/>
      <point x="130" y="504" type="curve" smooth="yes"/>
      <point x="130" y="911"/>
      <point x="508" y="1052"/>
      <point x="835" y="1052" type="curve" smooth="yes"/>
      <point x="1266" y="1052"/>
      <point x="1416" y="814"/>
      <point x="1465" y="609" type="curve"/>
      <point x="1465" y="558" type="line"/>
      <point x="1464" y="523"/>
      <point x="1442" y="450"/>
      <point x="1331" y="450" type="curve" smooth="yes"/>
      <point x="372" y="450" type="line" smooth="yes"/>
      <point x="361" y="450"/>
      <point x="355" y="448"/>
      <point x="355" y="441" type="curve" smooth="yes"/>
      <point x="356" y="316"/>
      <point x="436" y="107"/>
      <point x="860" y="107" type="curve" smooth="yes"/>
      <point x="1123" y="107"/>
      <point x="1254" y="170"/>
      <point x="1320" y="201" type="curve" smooth="yes"/>
      <point x="1337" y="209"/>
      <point x="1350" y="212"/>
      <point x="1361" y="212" type="curve" smooth="yes"/>
      <point x="1377" y="212"/>
      <point x="1386" y="205"/>
      <point x="1390" y="194" type="curve" smooth="yes"/>
      <point x="1392" y="189"/>
      <point x="1415" y="135"/>
      <point x="1415" y="111" type="curve" smooth="yes"/>
      <point x="1415" y="96"/>
      <point x="1407" y="83"/>
      <point x="1379" y="70" type="curve" smooth="yes"/>
      <point x="1254" y="8"/>
      <point x="1030" y="-42"/>
    </contour>
    <contour>
      <point x="367" y="589" type="curve" smooth="yes"/>
      <point x="1283" y="589" type="line" smooth="yes"/>
      <point x="1282" y="589"/>
      <point x="1281" y="591"/>
      <point x="1281" y="591" type="curve"/>
      <point x="1231" y="733"/>
      <point x="1160" y="902"/>
      <point x="833" y="902" type="curve" smooth="yes"/>
      <point x="620" y="902"/>
      <point x="395" y="813"/>
      <point x="359" y="596" type="curve" smooth="yes"/>
      <point x="359" y="592"/>
      <point x="360" y="589"/>
    </contour>
  </outline>
</glyph>
<glyph name="l" format="1">
  <advance width="538"/>
  <unicode hex="006C"/>
  <outline>
    <contour>
      <point x="227" y="0" type="line" smooth="yes"/>
      <point x="184" y="0"/>
      <point x="160" y="24"/>
      <point x="160" y="67" type="curve" smooth="yes"/>
      <point x="160" y="1370" type="line" smooth="yes"/>
      <point x="160" y="1413"/>
      <point x="184" y="1437"/>
      <point x="227" y="1437" type="curve" smooth="yes"/>
      <point x="312" y="1437" type="line" smooth="yes"/>
      <point x="355" y="1437"/>
      <point x="378" y="1413"/>
      <point x="378" y="1370" type="curve" smooth="yes"/>
      <point x="378" y="67" type="line" smooth="yes"/>
      <point x="378" y="24"/>
      <point x="355" y="0"/>
      <point x="312" y="0" type="curve" smooth="yes"/>
    </contour>
  </outline>
</glyph>
<glyph name="s" format="1">
  <advance width="1550"/>
  <unicode hex="0073"/>
  <outline>
    <contour>
      <point x="794" y="-41" type="curve" smooth="yes"/>
      <point x="604" y="-41"/>
      <point x="377" y="-18"/>
      <point x="190" y="59" type="curve" smooth="yes"/>
      <point x="166" y="69"/>
      <point x="149" y="97"/>
      <point x="149" y="125" type="curve" smooth="yes"/>
      <point x="149" y="134"/>
      <point x="150" y="142"/>
      <point x="154" y="150" type="curve" smooth="yes"/>
      <point x="171" y="186"/>
      <point x="194" y="211"/>
      <point x="228" y="211" type="curve" smooth="yes"/>
      <point x="237" y="211"/>
      <point x="246" y="210"/>
      <point x="256" y="206" type="curve" smooth="yes"/>
      <point x="430" y="139"/>
      <point x="581" y="113"/>
      <point x="810" y="113" type="curve" smooth="yes"/>
      <point x="1151" y="113"/>
      <point x="1233" y="180"/>
      <point x="1233" y="296" type="curve" smooth="yes"/>
      <point x="1233" y="393"/>
      <point x="1193" y="434"/>
      <point x="761" y="450" type="curve" smooth="yes"/>
      <point x="392" y="464"/>
      <point x="147" y="507"/>
      <point x="147" y="735" type="curve" smooth="yes"/>
      <point x="147" y="1034"/>
      <point x="533" y="1053"/>
      <point x="764" y="1053" type="curve" smooth="yes"/>
      <point x="989" y="1053"/>
      <point x="1132" y="1023"/>
      <point x="1275" y="970" type="curve" smooth="yes"/>
      <point x="1301" y="960"/>
      <point x="1316" y="938"/>
      <point x="1316" y="914" type="curve" smooth="yes"/>
      <point x="1316" y="906"/>
      <point x="1315" y="899"/>
      <point x="1311" y="891" type="curve" smooth="yes"/>
      <point x="1299" y="865" type="line" smooth="yes"/>
      <point x="1288" y="842"/>
      <point x="1265" y="833"/>
      <point x="1238" y="833" type="curve" smooth="yes"/>
      <point x="1225" y="833"/>
      <point x="1210" y="835"/>
      <point x="1197" y="839" type="curve" smooth="yes"/>
      <point x="1097" y="870"/>
      <point x="1008" y="899"/>
      <point x="816" y="899" type="curve" smooth="yes"/>
      <point x="496" y="899"/>
      <point x="346" y="860"/>
      <point x="346" y="755" type="curve" smooth="yes"/>
      <point x="346" y="657"/>
      <point x="367" y="647"/>
      <point x="801" y="618" type="curve" smooth="yes"/>
      <point x="1196" y="591"/>
      <point x="1416" y="568"/>
      <point x="1416" y="307" type="curve" smooth="yes"/>
      <point x="1416" y="97"/>
      <point x="1294" y="-41"/>
    </contour>
  </outline>
</glyph>
<glyph name="w" format="1">
  <advance width="2505"/>
  <unicode hex="0077"/>
  <outline>
    <contour>
      <point x="692" y="0" type="line" smooth="yes"/>
      <point x="653" y="0"/>
      <point x="619" y="27"/>
      <point x="596" y="67" type="curve"/>
      <point x="129" y="939" type="line" smooth="yes"/>
      <point x="121" y="954"/>
      <point x="117" y="968"/>
      <point x="117" y="978" type="curve" smooth="yes"/>
      <point x="117" y="996"/>
      <point x="131" y="1006"/>
      <point x="159" y="1006" type="curve" smooth="yes"/>
      <point x="273" y="1006" type="line" smooth="yes"/>
      <point x="316" y="1006"/>
      <point x="335" y="983"/>
      <point x="357" y="939" type="curve" smooth="yes"/>
      <point x="739" y="177" type="line" smooth="yes"/>
      <point x="743" y="170"/>
      <point x="747" y="167"/>
      <point x="751" y="167" type="curve" smooth="yes"/>
      <point x="756" y="167"/>
      <point x="760" y="171"/>
      <point x="763" y="177" type="curve" smooth="yes"/>
      <point x="1123" y="939" type="line" smooth="yes"/>
      <point x="1145" y="986"/>
      <point x="1174" y="1006"/>
      <point x="1217" y="1006" type="curve" smooth="yes"/>
      <point x="1299" y="1006" type="line" smooth="yes"/>
      <point x="1336" y="1006"/>
      <point x="1352" y="980"/>
      <point x="1375" y="939" type="curve"/>
      <point x="1775" y="177" type="line" smooth="yes"/>
      <point x="1778" y="171"/>
      <point x="1782" y="169"/>
      <point x="1786" y="169" type="curve" smooth="yes"/>
      <point x="1792" y="169"/>
      <point x="1798" y="174"/>
      <point x="1799" y="177" type="curve" smooth="yes"/>
      <point x="2140" y="939" type="line" smooth="yes"/>
      <point x="2161" y="986"/>
      <point x="2191" y="1006"/>
      <point x="2234" y="1006" type="curve" smooth="yes"/>
      <point x="2351" y="1006" type="line" smooth="yes"/>
      <point x="2375" y="1006"/>
      <point x="2388" y="998"/>
      <point x="2388" y="983" type="curve" smooth="yes"/>
      <point x="2388" y="972"/>
      <point x="2382" y="957"/>
      <point x="2370" y="939" type="curve"/>
      <point x="1943" y="67" type="line" smooth="yes"/>
      <point x="1922" y="23"/>
      <point x="1877" y="0"/>
      <point x="1837" y="0" type="curve" smooth="yes"/>
      <point x="1729" y="0" type="line" smooth="yes"/>
      <point x="1690" y="0"/>
      <point x="1654" y="26"/>
      <point x="1633" y="67" type="curve" smooth="yes"/>
      <point x="1264" y="790" type="line" smooth="yes"/>
      <point x="1261" y="796"/>
      <point x="1258" y="797"/>
      <point x="1254" y="797" type="curve" smooth="yes"/>
      <point x="1249" y="797"/>
      <point x="1244" y="793"/>
      <point x="1243" y="790" type="curve" smooth="yes"/>
      <point x="904" y="67" type="line" smooth="yes"/>
      <point x="883" y="23"/>
      <point x="838" y="0"/>
      <point x="798" y="0" type="curve" smooth="yes"/>
    </contour>
  </outline>
</glyph>
<glyph name="brokenbar" format="1">
  <advance width="509"/>
  <unicode hex="00A6"/>
  <outline>
    <contour>
      <point x="217" y="-150" type="line" smooth="yes"/>
      <point x="174" y="-150"/>
      <point x="160" y="-116"/>
      <point x="160" y="-73" type="curve" smooth="yes"/>
      <point x="160" y="509" type="line" smooth="yes"/>
      <point x="160" y="552"/>
      <point x="174" y="586"/>
      <point x="217" y="586" type="curve" smooth="yes"/>
      <point x="292" y="586" type="line" smooth="yes"/>
      <point x="335" y="586"/>
      <point x="349" y="552"/>
      <point x="349" y="509" type="curve" smooth="yes"/>
      <point x="349" y="-73" type="line" smooth="yes"/>
      <point x="349" y="-116"/>
      <point x="335" y="-150"/>
      <point x="292" y="-150" type="curve" smooth="yes"/>
    </contour>
    <contour>
      <point x="217" y="819" type="line" smooth="yes"/>
      <point x="174" y="819"/>
      <point x="160" y="853"/>
      <point x="160" y="896" type="curve" smooth="yes"/>
      <point x="160" y="1478" type="line" smooth="yes"/>
      <point x="160" y="1521"/>
      <point x="174" y="1555"/>
      <point x="217" y="1555" type="curve" smooth="yes"/>
      <point x="292" y="1555" type="line" smooth="yes"/>
      <point x="335" y="1555"/>
      <point x="349" y="1521"/>
      <point x="349" y="1478" type="curve" smooth="yes"/>
      <point x="349" y="896" type="line" smooth="yes"/>
      <point x="349" y="853"/>
      <point x="335" y="819"/>
      <point x="292" y="819" type="curve" smooth="yes"/>
    </contour>
  </outline>
</glyph>
<glyph name="section" format="1">
  <advance width="1574"/>
  <unicode hex="00A7"/>
  <outline>
    <contour>
      <point x="1195" y="574" type="curve"/>
      <point x="1195" y="574"/>
      <point x="1239" y="693"/>
      <point x="1239" y="719" type="curve" smooth="yes"/>
      <point x="1239" y="816"/>
      <point x="1203" y="857"/>
      <point x="771" y="873" type="curve" smooth="yes"/>
      <point x="630" y="878"/>
      <point x="507" y="888"/>
      <point x="408" y="910" type="curve"/>
      <point x="370" y="857"/>
      <point x="357" y="792"/>
      <point x="357" y="755" type="curve" smooth="yes"/>
      <point x="357" y="675"/>
      <point x="380" y="648"/>
      <point x="810" y="619" type="curve" smooth="yes"/>
      <point x="966" y="608"/>
      <point x="1096" y="599"/>
    </contour>
    <contour>
      <point x="159" y="122" type="curve" smooth="yes"/>
      <point x="159" y="171"/>
      <point x="198" y="212"/>
      <point x="237" y="212" type="curve" smooth="yes"/>
      <point x="246" y="212"/>
      <point x="255" y="211"/>
      <point x="265" y="207" type="curve" smooth="yes"/>
      <point x="439" y="140"/>
      <point x="590" y="114"/>
      <point x="820" y="114" type="curve" smooth="yes"/>
      <point x="1160" y="114"/>
      <point x="1243" y="181"/>
      <point x="1243" y="297" type="curve" smooth="yes"/>
      <point x="1243" y="394"/>
      <point x="1203" y="435"/>
      <point x="771" y="451" type="curve" smooth="yes"/>
      <point x="402" y="465"/>
      <point x="156" y="508"/>
      <point x="156" y="736" type="curve" smooth="yes"/>
      <point x="156" y="821"/>
      <point x="210" y="899"/>
      <point x="283" y="954" type="curve"/>
      <point x="202" y="996"/>
      <point x="156" y="1060"/>
      <point x="156" y="1158" type="curve" smooth="yes"/>
      <point x="156" y="1457"/>
      <point x="542" y="1476"/>
      <point x="774" y="1476" type="curve" smooth="yes"/>
      <point x="998" y="1476"/>
      <point x="1141" y="1446"/>
      <point x="1284" y="1393" type="curve" smooth="yes"/>
      <point x="1310" y="1383"/>
      <point x="1325" y="1361"/>
      <point x="1325" y="1337" type="curve" smooth="yes"/>
      <point x="1325" y="1329"/>
      <point x="1324" y="1322"/>
      <point x="1320" y="1314" type="curve" smooth="yes"/>
      <point x="1308" y="1288" type="line" smooth="yes"/>
      <point x="1297" y="1265"/>
      <point x="1274" y="1256"/>
      <point x="1247" y="1256" type="curve" smooth="yes"/>
      <point x="1234" y="1256"/>
      <point x="1219" y="1258"/>
      <point x="1206" y="1262" type="curve" smooth="yes"/>
      <point x="1106" y="1293"/>
      <point x="1018" y="1322"/>
      <point x="825" y="1322" type="curve" smooth="yes"/>
      <point x="505" y="1322"/>
      <point x="356" y="1283"/>
      <point x="356" y="1178" type="curve" smooth="yes"/>
      <point x="356" y="1080"/>
      <point x="377" y="1070"/>
      <point x="810" y="1041" type="curve" smooth="yes"/>
      <point x="1206" y="1014"/>
      <point x="1426" y="991"/>
      <point x="1426" y="730" type="curve" smooth="yes"/>
      <point x="1426" y="650"/>
      <point x="1378" y="574"/>
      <point x="1330" y="518" type="curve"/>
      <point x="1393" y="474"/>
      <point x="1426" y="409"/>
      <point x="1426" y="308" type="curve" smooth="yes"/>
      <point x="1426" y="98"/>
      <point x="1303" y="-40"/>
      <point x="803" y="-40" type="curve" smooth="yes"/>
      <point x="613" y="-40"/>
      <point x="387" y="-17"/>
      <point x="200" y="60" type="curve" smooth="yes"/>
      <point x="172" y="71"/>
      <point x="159" y="96"/>
    </contour>
  </outline>
</glyph>
<glyph name="uni00AD" format="1">
  <advance width="1024"/>
  <unicode hex="00AD"/>
  <outline>
    <contour>
      <point x="127" y="449" type="line"/>
      <point x="93.8799" y="449"/>
      <point x="67" y="486.408"/>
      <point x="67" y="532.5" type="curve" smooth="yes"/>
      <point x="67" y="640.5" type="line" smooth="yes"/>
      <point x="67" y="678.312"/>
      <point x="93.8799" y="709"/>
      <point x="127" y="709" type="curve"/>
      <point x="896" y="709" type="line"/>
      <point x="923.6" y="709"/>
      <point x="946" y="676.968"/>
      <point x="946" y="637.5" type="curve" smooth="yes"/>
      <point x="946" y="525.5" type="line" smooth="yes"/>
      <point x="946" y="483.272"/>
      <point x="923.6" y="449"/>
      <point x="896" y="449" type="curve"/>
    </contour>
  </outline>
</glyph>
<glyph name="cedilla" format="1">
  <advance width="716"/>
  <unicode hex="00B8"/>
  <outline>
    <contour>
      <point x="249" y="-209" type="curve" smooth="yes"/>
      <point x="312" y="-209" type="line" smooth="yes"/>
      <point x="337" y="-209"/>
      <point x="342" y="-224"/>
      <point x="342" y="-244" type="curve" smooth="yes"/>
      <point x="342" y="-261"/>
      <point x="338" y="-281"/>
      <point x="338" y="-298" type="curve" smooth="yes"/>
      <point x="338" y="-351"/>
      <point x="360" y="-394"/>
      <point x="410" y="-394" type="curve" smooth="yes"/>
      <point x="457" y="-394"/>
      <point x="483" y="-354"/>
      <point x="483" y="-243" type="curve" smooth="yes"/>
      <point x="483" y="-167"/>
      <point x="452" y="-90"/>
      <point x="402" y="-90" type="curve" smooth="yes"/>
      <point x="363" y="-90" type="line"/>
      <point x="363" y="-90"/>
      <point x="347" y="-91"/>
      <point x="347" y="-80" type="curve" smooth="yes"/>
      <point x="347" y="-9" type="line" smooth="yes"/>
      <point x="347" y="1"/>
      <point x="350" y="8"/>
      <point x="363" y="8" type="curve" smooth="yes"/>
      <point x="438" y="8" type="line" smooth="yes"/>
      <point x="546" y="8"/>
      <point x="619" y="-95"/>
      <point x="619" y="-206" type="curve" smooth="yes"/>
      <point x="619" y="-384"/>
      <point x="547" y="-478"/>
      <point x="403" y="-478" type="curve" smooth="yes"/>
      <point x="289" y="-478"/>
      <point x="199" y="-408"/>
      <point x="199" y="-300" type="curve" smooth="yes"/>
      <point x="199" y="-258"/>
      <point x="207" y="-209"/>
    </contour>
  </outline>
</glyph>
<glyph name="eth" format="1">
  <advance width="1862"/>
  <unicode hex="00F0"/>
  <outline>
    <contour>
      <point x="947" y="-42" type="curve" smooth="yes"/>
      <point x="490" y="-42"/>
      <point x="128" y="60"/>
      <point x="128" y="425" type="curve" smooth="yes"/>
      <point x="128" y="682"/>
      <point x="290" y="896"/>
      <point x="911" y="896" type="curve" smooth="yes"/>
      <point x="1250" y="896"/>
      <point x="1450" y="814"/>
      <point x="1517" y="712" type="curve"/>
      <point x="1474" y="1009"/>
      <point x="1221" y="1165"/>
      <point x="1058" y="1252" type="curve"/>
      <point x="868" y="1047" type="line" smooth="yes"/>
      <point x="858" y="1036"/>
      <point x="845" y="1031"/>
      <point x="831" y="1031" type="curve" smooth="yes"/>
      <point x="818" y="1031"/>
      <point x="805" y="1036"/>
      <point x="795" y="1046" type="curve" smooth="yes"/>
      <point x="765" y="1074" type="line" smooth="yes"/>
      <point x="756" y="1083"/>
      <point x="749" y="1097"/>
      <point x="749" y="1112" type="curve" smooth="yes"/>
      <point x="749" y="1125"/>
      <point x="754" y="1138"/>
      <point x="764" y="1148" type="curve" smooth="yes"/>
      <point x="915" y="1311" type="line"/>
      <point x="813" y="1336"/>
      <point x="709" y="1359"/>
      <point x="608" y="1382" type="curve"/>
      <point x="591" y="1390"/>
      <point x="577" y="1401"/>
      <point x="577" y="1419" type="curve" smooth="yes"/>
      <point x="577" y="1424"/>
      <point x="579" y="1430"/>
      <point x="580" y="1436" type="curve" smooth="yes"/>
      <point x="593" y="1495" type="line"/>
      <point x="601" y="1515"/>
      <point x="604" y="1528"/>
      <point x="629" y="1528" type="curve" smooth="yes"/>
      <point x="634" y="1528"/>
      <point x="640" y="1527"/>
      <point x="647" y="1526" type="curve" smooth="yes"/>
      <point x="766" y="1510"/>
      <point x="899" y="1480"/>
      <point x="1031" y="1438" type="curve"/>
      <point x="1195" y="1615" type="line" smooth="yes"/>
      <point x="1205" y="1626"/>
      <point x="1218" y="1631"/>
      <point x="1232" y="1631" type="curve" smooth="yes"/>
      <point x="1245" y="1631"/>
      <point x="1258" y="1626"/>
      <point x="1268" y="1616" type="curve" smooth="yes"/>
      <point x="1294" y="1589"/>
      <point x="1299" y="1584"/>
      <point x="1300" y="1584" type="curve" smooth="yes"/>
      <point x="1310" y="1574"/>
      <point x="1314" y="1561"/>
      <point x="1314" y="1548" type="curve" smooth="yes"/>
      <point x="1314" y="1536"/>
      <point x="1310" y="1523"/>
      <point x="1300" y="1513" type="curve" smooth="yes"/>
      <point x="1170" y="1373" type="line"/>
      <point x="1502" y="1194"/>
      <point x="1731" y="866"/>
      <point x="1731" y="558" type="curve" smooth="yes"/>
      <point x="1731" y="227"/>
      <point x="1536" y="-42"/>
    </contour>
    <contour>
      <point x="947" y="131" type="curve" smooth="yes"/>
      <point x="1317" y="131"/>
      <point x="1506" y="257"/>
      <point x="1506" y="457" type="curve" smooth="yes"/>
      <point x="1506" y="707"/>
      <point x="1240" y="737"/>
      <point x="935" y="737" type="curve" smooth="yes"/>
      <point x="456" y="737"/>
      <point x="348" y="606"/>
      <point x="348" y="433" type="curve" smooth="yes"/>
      <point x="348" y="187"/>
      <point x="551" y="131"/>
    </contour>
  </outline>
</glyph>
<glyph name="dcroat" format="1">
  <advance width="1671"/>
  <unicode hex="0111"/>
  <outline>
    <contour>
      <point x="787" y="-41" type="curve" smooth="yes"/>
      <point x="495" y="-41"/>
      <point x="129" y="106"/>
      <point x="129" y="504" type="curve" smooth="yes"/>
      <point x="129" y="913"/>
      <point x="483" y="1053"/>
      <point x="806" y="1053" type="curve" smooth="yes"/>
      <point x="1004" y="1053"/>
      <point x="1174" y="990"/>
      <point x="1281" y="858" type="curve" smooth="yes"/>
      <point x="1283" y="856"/>
      <point x="1285" y="854"/>
      <point x="1287" y="855" type="curve" smooth="yes"/>
      <point x="1289" y="855"/>
      <point x="1290" y="856"/>
      <point x="1292" y="863" type="curve"/>
      <point x="1292" y="1160" type="line"/>
      <point x="929" y="1160" type="line" smooth="yes"/>
      <point x="886" y="1160"/>
      <point x="872" y="1184"/>
      <point x="872" y="1227" type="curve" smooth="yes"/>
      <point x="872" y="1249" type="line" smooth="yes"/>
      <point x="872" y="1292"/>
      <point x="886" y="1316"/>
      <point x="929" y="1316" type="curve" smooth="yes"/>
      <point x="1292" y="1316" type="line"/>
      <point x="1292" y="1372" type="line" smooth="yes"/>
      <point x="1292" y="1415"/>
      <point x="1316" y="1438"/>
      <point x="1359" y="1438" type="curve" smooth="yes"/>
      <point x="1444" y="1438" type="line" smooth="yes"/>
      <point x="1487" y="1438"/>
      <point x="1511" y="1415"/>
      <point x="1511" y="1372" type="curve" smooth="yes"/>
      <point x="1511" y="1316" type="line"/>
      <point x="1611" y="1316" type="line" smooth="yes"/>
      <point x="1655" y="1316"/>
      <point x="1668" y="1292"/>
      <point x="1668" y="1249" type="curve" smooth="yes"/>
      <point x="1668" y="1227" type="line" smooth="yes"/>
      <point x="1668" y="1184"/>
      <point x="1655" y="1160"/>
      <point x="1611" y="1160" type="curve" smooth="yes"/>
      <point x="1511" y="1160" type="line"/>
      <point x="1511" y="67" type="line" smooth="yes"/>
      <point x="1511" y="24"/>
      <point x="1501" y="0"/>
      <point x="1458" y="0" type="curve" smooth="yes"/>
      <point x="1445" y="0" type="line" smooth="yes"/>
      <point x="1420" y="0"/>
      <point x="1399" y="31"/>
      <point x="1379" y="71" type="curve" smooth="yes"/>
      <point x="1360" y="111"/>
      <point x="1349" y="152"/>
      <point x="1336" y="194" type="curve" smooth="yes"/>
      <point x="1334" y="200"/>
      <point x="1330" y="207"/>
      <point x="1324" y="207" type="curve" smooth="yes"/>
      <point x="1320" y="207"/>
      <point x="1316" y="204"/>
      <point x="1310" y="197" type="curve" smooth="yes"/>
      <point x="1194" y="41"/>
      <point x="981" y="-41"/>
    </contour>
    <contour>
      <point x="818" y="116" type="curve" smooth="yes"/>
      <point x="1078" y="116"/>
      <point x="1293" y="243"/>
      <point x="1292" y="504" type="curve"/>
      <point x="1293" y="790"/>
      <point x="1062" y="896"/>
      <point x="818" y="896" type="curve" smooth="yes"/>
      <point x="579" y="896"/>
      <point x="348" y="792"/>
      <point x="348" y="504" type="curve" smooth="yes"/>
      <point x="348" y="240"/>
      <point x="563" y="116"/>
    </contour>
  </outline>
</glyph>
<glyph name="lslash" format="1">
  <advance width="922"/>
  <unicode hex="0142"/>
  <outline>
    <contour>
      <point x="404" y="0" type="line" smooth="yes"/>
      <point x="361" y="0"/>
      <point x="337" y="24"/>
      <point x="337" y="67" type="curve" smooth="yes"/>
      <point x="337" y="690" type="line"/>
      <point x="126" y="624" type="line" smooth="yes"/>
      <point x="121" y="623"/>
      <point x="116" y="622"/>
      <point x="112" y="622" type="curve" smooth="yes"/>
      <point x="80" y="622"/>
      <point x="68" y="653"/>
      <point x="68" y="692" type="curve" smooth="yes"/>
      <point x="68" y="709" type="line" smooth="yes"/>
      <point x="68" y="752"/>
      <point x="83" y="766"/>
      <point x="126" y="776" type="curve"/>
      <point x="337" y="842" type="line"/>
      <point x="337" y="1370" type="line" smooth="yes"/>
      <point x="337" y="1413"/>
      <point x="361" y="1437"/>
      <point x="404" y="1437" type="curve" smooth="yes"/>
      <point x="489" y="1437" type="line" smooth="yes"/>
      <point x="532" y="1437"/>
      <point x="555" y="1413"/>
      <point x="555" y="1370" type="curve" smooth="yes"/>
      <point x="555" y="911" type="line"/>
      <point x="797" y="987" type="line" smooth="yes"/>
      <point x="803" y="989"/>
      <point x="808" y="990"/>
      <point x="813" y="990" type="curve" smooth="yes"/>
      <point x="844" y="990"/>
      <point x="855" y="957"/>
      <point x="855" y="919" type="curve" smooth="yes"/>
      <point x="855" y="903" type="line" smooth="yes"/>
      <point x="855" y="859"/>
      <point x="838" y="848"/>
      <point x="797" y="835" type="curve" smooth="yes"/>
      <point x="555" y="759" type="line"/>
      <point x="555" y="67" type="line" smooth="yes"/>
      <point x="555" y="24"/>
      <point x="532" y="0"/>
      <point x="489" y="0" type="curve" smooth="yes"/>
    </contour>
  </outline>
</glyph>
<glyph name="Eng" format="1">
  <advance width="2033"/>
  <unicode hex="014A"/>
  <outline>
    <contour>
      <point x="955" y="-592" type="curve" smooth="yes"/>
      <point x="940" y="-592"/>
      <point x="924" y="-574"/>
      <point x="924" y="-538" type="curve" smooth="yes"/>
      <point x="924" y="-476" type="line" smooth="yes"/>
      <point x="924" y="-435"/>
      <point x="942" y="-421"/>
      <point x="955" y="-421" type="curve" smooth="yes"/>
      <point x="1347" y="-421"/>
      <point x="1657" y="-396"/>
      <point x="1656" y="104" type="curve"/>
      <point x="1656" y="111" type="line"/>
      <point x="391" y="1127" type="line"/>
      <point x="377" y="1118" type="line"/>
      <point x="377" y="67" type="line" smooth="yes"/>
      <point x="377" y="24"/>
      <point x="353" y="0"/>
      <point x="310" y="0" type="curve" smooth="yes"/>
      <point x="227" y="0" type="line" smooth="yes"/>
      <point x="184" y="0"/>
      <point x="160" y="24"/>
      <point x="160" y="67" type="curve" smooth="yes"/>
      <point x="160" y="1371" type="line" smooth="yes"/>
      <point x="160" y="1414"/>
      <point x="184" y="1438"/>
      <point x="227" y="1438" type="curve" smooth="yes"/>
      <point x="303" y="1438" type="line" smooth="yes"/>
      <point x="324" y="1438"/>
      <point x="341" y="1432"/>
      <point x="351" y="1420" type="curve"/>
      <point x="1643" y="374" type="line"/>
      <point x="1656" y="387" type="line"/>
      <point x="1656" y="1371" type="line" smooth="yes"/>
      <point x="1656" y="1414"/>
      <point x="1680" y="1438"/>
      <point x="1723" y="1438" type="curve" smooth="yes"/>
      <point x="1807" y="1438" type="line" smooth="yes"/>
      <point x="1850" y="1438"/>
      <point x="1873" y="1414"/>
      <point x="1873" y="1371" type="curve" smooth="yes"/>
      <point x="1874" y="99" type="line" smooth="yes"/>
      <point x="1874" y="-520"/>
      <point x="1417" y="-592"/>
    </contour>
  </outline>
</glyph>
<glyph name="florin" format="1">
  <advance width="1107"/>
  <unicode hex="0192"/>
  <outline>
    <contour>
      <point x="661" y="823" type="curve" smooth="yes"/>
      <point x="660.987" y="266.5" type="line" smooth="yes"/>
      <point x="660.979" y="-67.3916"/>
      <point x="528.433" y="-160"/>
      <point x="318" y="-160" type="curve" smooth="yes"/>
      <point x="159" y="-160"/>
      <point x="132" y="-127"/>
      <point x="116" y="-124" type="curve" smooth="yes"/>
      <point x="88" y="-117"/>
      <point x="66" y="-102"/>
      <point x="66" y="-74" type="curve" smooth="yes"/>
      <point x="66" y="-22" type="line" smooth="yes"/>
      <point x="66" y="15"/>
      <point x="74" y="22"/>
      <point x="108" y="22" type="curve" smooth="yes"/>
      <point x="113" y="22"/>
      <point x="228.209" y="-17.2461"/>
      <point x="294" y="-12" type="curve" smooth="yes"/>
      <point x="444.5" y="0"/>
      <point x="443" y="114"/>
      <point x="443" y="254" type="curve" smooth="yes"/>
      <point x="443" y="823" type="line" smooth="yes"/>
      <point x="443" y="843"/>
      <point x="443" y="860"/>
      <point x="423" y="860" type="curve" smooth="yes"/>
      <point x="271" y="860" type="line" smooth="yes"/>
      <point x="228" y="860"/>
      <point x="204" y="869"/>
      <point x="204" y="912" type="curve" smooth="yes"/>
      <point x="204" y="945" type="line" smooth="yes"/>
      <point x="204" y="988"/>
      <point x="228" y="1006"/>
      <point x="271" y="1006" type="curve" smooth="yes"/>
      <point x="421" y="1006" type="line" smooth="yes"/>
      <point x="443" y="1006"/>
      <point x="444" y="1019"/>
      <point x="444" y="1041" type="curve" smooth="yes"/>
      <point x="443" y="1381"/>
      <point x="576" y="1475"/>
      <point x="788" y="1475" type="curve" smooth="yes"/>
      <point x="947" y="1475"/>
      <point x="973" y="1441"/>
      <point x="989" y="1438" type="curve" smooth="yes"/>
      <point x="1017" y="1431"/>
      <point x="1039" y="1416"/>
      <point x="1039" y="1388" type="curve" smooth="yes"/>
      <point x="1039" y="1337" type="line" smooth="yes"/>
      <point x="1039" y="1300"/>
      <point x="1032" y="1293"/>
      <point x="998" y="1293" type="curve" smooth="yes"/>
      <point x="993" y="1293"/>
      <point x="907" y="1327"/>
      <point x="841" y="1327" type="curve" smooth="yes"/>
      <point x="674.5" y="1327"/>
      <point x="661" y="1200"/>
      <point x="661" y="1060" type="curve" smooth="yes"/>
      <point x="661" y="1017" type="line" smooth="yes"/>
      <point x="661" y="1014"/>
      <point x="663" y="1006"/>
      <point x="673" y="1006" type="curve" smooth="yes"/>
      <point x="948" y="1006" type="line" smooth="yes"/>
      <point x="991" y="1006"/>
      <point x="1015" y="994"/>
      <point x="1015" y="951" type="curve" smooth="yes"/>
      <point x="1015" y="912" type="line" smooth="yes"/>
      <point x="1015" y="869"/>
      <point x="991" y="860"/>
      <point x="948" y="860" type="curve" smooth="yes"/>
      <point x="684" y="860" type="line" smooth="yes"/>
      <point x="664" y="860"/>
      <point x="661" y="843"/>
    </contour>
  </outline>
</glyph>
<glyph name="dotlessj" format="1">
  <advance width="774"/>
  <unicode hex="0237"/>
  <outline>
    <contour>
      <point x="192" y="-379" type="line" smooth="yes"/>
      <point x="192" y="-379"/>
      <point x="106" y="-379"/>
      <point x="108" y="-380" type="curve"/>
      <point x="65" y="-380"/>
      <point x="50" y="-356"/>
      <point x="50" y="-313" type="curve" smooth="yes"/>
      <point x="50" y="-268" type="line" smooth="yes"/>
      <point x="50" y="-225"/>
      <point x="65" y="-207"/>
      <point x="108" y="-207" type="curve" smooth="yes"/>
      <point x="233" y="-207" type="line" smooth="yes"/>
      <point x="390" y="-207"/>
      <point x="396" y="-112"/>
      <point x="396" y="51" type="curve" smooth="yes"/>
      <point x="396" y="93" type="line" smooth="yes"/>
      <point x="396" y="939" type="line" smooth="yes"/>
      <point x="396" y="982"/>
      <point x="420" y="1006"/>
      <point x="463" y="1006" type="curve" smooth="yes"/>
      <point x="548" y="1006" type="line" smooth="yes"/>
      <point x="591" y="1006"/>
      <point x="614" y="982"/>
      <point x="614" y="939" type="curve" smooth="yes"/>
      <point x="614" y="6" type="line"/>
      <point x="612" y="-257"/>
      <point x="500" y="-379"/>
      <point x="196" y="-379" type="curve" smooth="yes"/>
    </contour>
  </outline>
</glyph>
<glyph name="circumflex" format="1">
  <advance width="846"/>
  <unicode hex="02C6"/>
  <outline>
    <contour>
      <point x="100" y="1217" type="line" smooth="yes"/>
      <point x="83" y="1217"/>
      <point x="71" y="1231"/>
      <point x="71" y="1247" type="curve" smooth="yes"/>
      <point x="71" y="1253"/>
      <point x="74" y="1262"/>
      <point x="81" y="1268" type="curve" smooth="yes"/>
      <point x="243" y="1421" type="line" smooth="yes"/>
      <point x="278" y="1453"/>
      <point x="330" y="1473"/>
      <point x="377" y="1473" type="curve" smooth="yes"/>
      <point x="460" y="1473" type="line" smooth="yes"/>
      <point x="507" y="1473"/>
      <point x="558" y="1453"/>
      <point x="593" y="1421" type="curve" smooth="yes"/>
      <point x="756" y="1268" type="line" smooth="yes"/>
      <point x="763" y="1262"/>
      <point x="766" y="1253"/>
      <point x="766" y="1247" type="curve" smooth="yes"/>
      <point x="766" y="1231"/>
      <point x="754" y="1217"/>
      <point x="736" y="1217" type="curve" smooth="yes"/>
      <point x="704" y="1217" type="line" smooth="yes"/>
      <point x="658" y="1217"/>
      <point x="599" y="1232"/>
      <point x="559" y="1255" type="curve"/>
      <point x="451" y="1322" type="line" smooth="yes"/>
      <point x="442" y="1328"/>
      <point x="430" y="1330"/>
      <point x="419" y="1330" type="curve" smooth="yes"/>
      <point x="408" y="1330"/>
      <point x="397" y="1328"/>
      <point x="387" y="1322" type="curve" smooth="yes"/>
      <point x="277" y="1255" type="line"/>
      <point x="237" y="1232"/>
      <point x="179" y="1217"/>
      <point x="133" y="1217" type="curve" smooth="yes"/>
    </contour>
  </outline>
</glyph>
<glyph name="caron" format="1">
  <advance width="846"/>
  <unicode hex="02C7"/>
  <outline>
    <contour>
      <point x="377" y="1217" type="line" smooth="yes"/>
      <point x="330" y="1217"/>
      <point x="278" y="1237"/>
      <point x="243" y="1268" type="curve"/>
      <point x="81" y="1421" type="line" smooth="yes"/>
      <point x="74" y="1427"/>
      <point x="71" y="1436"/>
      <point x="71" y="1443" type="curve" smooth="yes"/>
      <point x="71" y="1459"/>
      <point x="83" y="1473"/>
      <point x="100" y="1473" type="curve" smooth="yes"/>
      <point x="133" y="1473" type="line" smooth="yes"/>
      <point x="179" y="1473"/>
      <point x="237" y="1458"/>
      <point x="277" y="1435" type="curve"/>
      <point x="386" y="1368" type="line" smooth="yes"/>
      <point x="395" y="1362"/>
      <point x="407" y="1360"/>
      <point x="418" y="1360" type="curve" smooth="yes"/>
      <point x="429" y="1360"/>
      <point x="440" y="1362"/>
      <point x="450" y="1368" type="curve" smooth="yes"/>
      <point x="560" y="1435" type="line" smooth="yes"/>
      <point x="599" y="1458"/>
      <point x="658" y="1473"/>
      <point x="704" y="1473" type="curve" smooth="yes"/>
      <point x="736" y="1473" type="line" smooth="yes"/>
      <point x="754" y="1473"/>
      <point x="766" y="1459"/>
      <point x="766" y="1443" type="curve" smooth="yes"/>
      <point x="766" y="1436"/>
      <point x="763" y="1427"/>
      <point x="756" y="1421" type="curve" smooth="yes"/>
      <point x="593" y="1268" type="line" smooth="yes"/>
      <point x="559" y="1237"/>
      <point x="507" y="1217"/>
      <point x="460" y="1217" type="curve" smooth="yes"/>
    </contour>
  </outline>
</glyph>
<glyph name="hungarumlaut" format="1">
  <advance width="1781"/>
  <unicode hex="02DD"/>
  <outline>
    <contour>
      <point x="1038" y="1301" type="curve" smooth="yes"/>
      <point x="1020" y="1301" type="line" smooth="yes"/>
      <point x="991" y="1301"/>
      <point x="978" y="1306"/>
      <point x="978" y="1333" type="curve" smooth="yes"/>
      <point x="978" y="1342"/>
      <point x="979" y="1354"/>
      <point x="982" y="1368" type="curve" smooth="yes"/>
      <point x="1044" y="1677" type="line" smooth="yes"/>
      <point x="1052" y="1720"/>
      <point x="1072" y="1732"/>
      <point x="1116" y="1732" type="curve" smooth="yes"/>
      <point x="1279" y="1732" type="line" smooth="yes"/>
      <point x="1299" y="1732"/>
      <point x="1307" y="1720"/>
      <point x="1307" y="1704" type="curve" smooth="yes"/>
      <point x="1307" y="1693"/>
      <point x="1302" y="1679"/>
      <point x="1295" y="1667" type="curve" smooth="yes"/>
      <point x="1094" y="1340" type="line" smooth="yes"/>
      <point x="1079" y="1316"/>
      <point x="1076" y="1301"/>
    </contour>
    <contour>
      <point x="678" y="1301" type="curve" smooth="yes"/>
      <point x="660" y="1301" type="line" smooth="yes"/>
      <point x="631" y="1301"/>
      <point x="618" y="1306"/>
      <point x="618" y="1333" type="curve" smooth="yes"/>
      <point x="618" y="1342"/>
      <point x="619" y="1354"/>
      <point x="622" y="1368" type="curve" smooth="yes"/>
      <point x="686" y="1677" type="line" smooth="yes"/>
      <point x="694" y="1720"/>
      <point x="712" y="1732"/>
      <point x="756" y="1732" type="curve" smooth="yes"/>
      <point x="919" y="1732" type="line" smooth="yes"/>
      <point x="939" y="1732"/>
      <point x="947" y="1720"/>
      <point x="947" y="1704" type="curve" smooth="yes"/>
      <point x="947" y="1693"/>
      <point x="942" y="1679"/>
      <point x="935" y="1667" type="curve" smooth="yes"/>
      <point x="734" y="1340" type="line" smooth="yes"/>
      <point x="719" y="1316"/>
      <point x="716" y="1301"/>
    </contour>
  </outline>
</glyph>
<glyph name="uni0326" format="1">
  <advance width="1745"/>
  <unicode hex="0326"/>
  <outline>
    <contour>
      <point x="683" y="-583" type="line" smooth="yes"/>
      <point x="654" y="-583"/>
      <point x="641" y="-578"/>
      <point x="641" y="-551" type="curve" smooth="yes"/>
      <point x="641" y="-542"/>
      <point x="642" y="-530"/>
      <point x="645" y="-516" type="curve" smooth="yes"/>
      <point x="708" y="-206" type="line" smooth="yes"/>
      <point x="716" y="-163"/>
      <point x="735" y="-151"/>
      <point x="779" y="-151" type="curve" smooth="yes"/>
      <point x="942" y="-151" type="line" smooth="yes"/>
      <point x="962" y="-151"/>
      <point x="970" y="-163"/>
      <point x="970" y="-179" type="curve" smooth="yes"/>
      <point x="970" y="-190"/>
      <point x="965" y="-204"/>
      <point x="958" y="-216" type="curve" smooth="yes"/>
      <point x="756" y="-544" type="line" smooth="yes"/>
      <point x="741" y="-568"/>
      <point x="738" y="-583"/>
      <point x="700" y="-583" type="curve" smooth="yes"/>
    </contour>
  </outline>
</glyph>
<glyph name="endash" format="1">
  <advance width="1024"/>
  <unicode hex="2013"/>
  <outline>
    <contour>
      <point x="183" y="489" type="curve" smooth="yes"/>
      <point x="844" y="489" type="line" smooth="yes"/>
      <point x="888" y="489"/>
      <point x="900" y="502"/>
      <point x="900" y="546" type="curve" smooth="yes"/>
      <point x="900" y="593" type="line" smooth="yes"/>
      <point x="900" y="637"/>
      <point x="888" y="650"/>
      <point x="844" y="650" type="curve" smooth="yes"/>
      <point x="183" y="650" type="line" smooth="yes"/>
      <point x="139" y="650"/>
      <point x="123" y="637"/>
      <point x="123" y="593" type="curve" smooth="yes"/>
      <point x="123" y="546" type="line" smooth="yes"/>
      <point x="123" y="502"/>
      <point x="139" y="489"/>
    </contour>
  </outline>
</glyph>
<glyph name="quoteleft" format="1">
  <advance width="603"/>
  <unicode hex="2018"/>
  <outline>
    <contour>
      <point x="208" y="914" type="line" smooth="yes"/>
      <point x="165" y="914"/>
      <point x="131" y="948"/>
      <point x="131" y="991" type="curve" smooth="yes"/>
      <point x="131" y="1134" type="line" smooth="yes"/>
      <point x="131" y="1371"/>
      <point x="261" y="1507"/>
      <point x="399" y="1530" type="curve" smooth="yes"/>
      <point x="404" y="1531"/>
      <point x="409" y="1531"/>
      <point x="414" y="1531" type="curve" smooth="yes"/>
      <point x="442" y="1531"/>
      <point x="464" y="1516"/>
      <point x="464" y="1485" type="curve" smooth="yes"/>
      <point x="464" y="1476" type="line" smooth="yes"/>
      <point x="464" y="1422"/>
      <point x="447" y="1428"/>
      <point x="404" y="1401" type="curve" smooth="yes"/>
      <point x="335" y="1358"/>
      <point x="302" y="1281"/>
      <point x="302" y="1257" type="curve" smooth="yes"/>
      <point x="302" y="1241"/>
      <point x="304" y="1230"/>
      <point x="319" y="1230" type="curve" smooth="yes"/>
      <point x="404" y="1230" type="line" smooth="yes"/>
      <point x="442" y="1230"/>
      <point x="464" y="1219"/>
      <point x="464" y="1181" type="curve" smooth="yes"/>
      <point x="464" y="978" type="line" smooth="yes"/>
      <point x="464" y="935"/>
      <point x="447" y="914"/>
      <point x="404" y="914" type="curve" smooth="yes"/>
    </contour>
  </outline>
</glyph>
<glyph name="quoteright" format="1">
  <advance width="586"/>
  <unicode hex="2019"/>
  <outline>
    <contour>
      <point x="203" y="920" type="curve" smooth="yes"/>
      <point x="198" y="919"/>
      <point x="193" y="919"/>
      <point x="188" y="919" type="curve" smooth="yes"/>
      <point x="159" y="919"/>
      <point x="137" y="934"/>
      <point x="137" y="965" type="curve" smooth="yes"/>
      <point x="137" y="974" type="line" smooth="yes"/>
      <point x="137" y="1028"/>
      <point x="155" y="1022"/>
      <point x="198" y="1049" type="curve" smooth="yes"/>
      <point x="267" y="1092"/>
      <point x="299" y="1169"/>
      <point x="299" y="1193" type="curve" smooth="yes"/>
      <point x="299" y="1209"/>
      <point x="297" y="1220"/>
      <point x="282" y="1220" type="curve" smooth="yes"/>
      <point x="197" y="1220" type="line" smooth="yes"/>
      <point x="159" y="1220"/>
      <point x="137" y="1232"/>
      <point x="137" y="1270" type="curve" smooth="yes"/>
      <point x="137" y="1473" type="line" smooth="yes"/>
      <point x="137" y="1516"/>
      <point x="154" y="1537"/>
      <point x="197" y="1537" type="curve" smooth="yes"/>
      <point x="393" y="1537" type="line" smooth="yes"/>
      <point x="436" y="1537"/>
      <point x="470" y="1503"/>
      <point x="470" y="1460" type="curve" smooth="yes"/>
      <point x="470" y="1317" type="line" smooth="yes"/>
      <point x="470" y="1080"/>
      <point x="341" y="943"/>
    </contour>
  </outline>
</glyph>
<glyph name="quotedblbase" format="1">
  <advance width="826"/>
  <unicode hex="201E"/>
  <outline>
    <contour>
      <point x="245" y="-308" type="line" smooth="yes"/>
      <point x="202" y="-308"/>
      <point x="205" y="-284"/>
      <point x="199" y="-241" type="curve" smooth="yes"/>
      <point x="133" y="248" type="line" smooth="yes"/>
      <point x="132" y="252"/>
      <point x="132" y="257"/>
      <point x="132" y="261" type="curve" smooth="yes"/>
      <point x="132" y="300"/>
      <point x="160" y="336"/>
      <point x="199" y="336" type="curve" smooth="yes"/>
      <point x="286" y="336" type="line" smooth="yes"/>
      <point x="326" y="336"/>
      <point x="354" y="297"/>
      <point x="354" y="257" type="curve" smooth="yes"/>
      <point x="354" y="254"/>
      <point x="353" y="250"/>
      <point x="353" y="247" type="curve" smooth="yes"/>
      <point x="294" y="-241" type="line" smooth="yes"/>
      <point x="289" y="-284"/>
      <point x="291" y="-308"/>
      <point x="248" y="-308" type="curve" smooth="yes"/>
    </contour>
    <contour>
      <point x="581" y="-308" type="line" smooth="yes"/>
      <point x="538" y="-308"/>
      <point x="541" y="-284"/>
      <point x="535" y="-241" type="curve" smooth="yes"/>
      <point x="469" y="248" type="line" smooth="yes"/>
      <point x="469" y="252"/>
      <point x="468" y="255"/>
      <point x="468" y="259" type="curve" smooth="yes"/>
      <point x="468" y="298"/>
      <point x="497" y="336"/>
      <point x="536" y="336" type="curve" smooth="yes"/>
      <point x="623" y="336" type="line" smooth="yes"/>
      <point x="663" y="336"/>
      <point x="690" y="298"/>
      <point x="690" y="258" type="curve" smooth="yes"/>
      <point x="690" y="255"/>
      <point x="689" y="250"/>
      <point x="689" y="247" type="curve" smooth="yes"/>
      <point x="630" y="-241" type="line" smooth="yes"/>
      <point x="625" y="-284"/>
      <point x="627" y="-308"/>
      <point x="584" y="-308" type="curve" smooth="yes"/>
    </contour>
  </outline>
</glyph>
<glyph name="trademark" format="1">
  <advance width="2567"/>
  <unicode hex="2122"/>
  <outline>
    <contour>
      <point x="1207" y="739" type="line" smooth="yes"/>
      <point x="1180" y="739"/>
      <point x="1166" y="754"/>
      <point x="1168" y="781" type="curve" smooth="yes"/>
      <point x="1241" y="1598" type="line" smooth="yes"/>
      <point x="1243" y="1623"/>
      <point x="1257" y="1638"/>
      <point x="1281" y="1639" type="curve"/>
      <point x="1329" y="1639" type="line"/>
      <point x="1354" y="1638"/>
      <point x="1375" y="1624"/>
      <point x="1390" y="1597" type="curve" smooth="yes"/>
      <point x="1816" y="857" type="line"/>
      <point x="1828" y="857" type="line"/>
      <point x="2267" y="1597" type="line" smooth="yes"/>
      <point x="2282" y="1624"/>
      <point x="2304" y="1638"/>
      <point x="2330" y="1639" type="curve"/>
      <point x="2378" y="1639" type="line"/>
      <point x="2402" y="1638"/>
      <point x="2416" y="1623"/>
      <point x="2418" y="1598" type="curve" smooth="yes"/>
      <point x="2487" y="781" type="line"/>
      <point x="2488" y="754"/>
      <point x="2475" y="739"/>
      <point x="2448" y="739" type="curve" smooth="yes"/>
      <point x="2403" y="739" type="line" smooth="yes"/>
      <point x="2376" y="739"/>
      <point x="2360" y="754"/>
      <point x="2357" y="781" type="curve" smooth="yes"/>
      <point x="2302" y="1424" type="line"/>
      <point x="2302" y="1424"/>
      <point x="2294" y="1424"/>
      <point x="2294" y="1425" type="curve" smooth="yes"/>
      <point x="1914" y="781" type="line"/>
      <point x="1900" y="755"/>
      <point x="1877" y="740"/>
      <point x="1851" y="739" type="curve"/>
      <point x="1789" y="739" type="line"/>
      <point x="1764" y="740"/>
      <point x="1742" y="755"/>
      <point x="1728" y="781" type="curve" smooth="yes"/>
      <point x="1363" y="1415" type="line"/>
      <point x="1357" y="1413" type="line"/>
      <point x="1297" y="781" type="line" smooth="yes"/>
      <point x="1295" y="754"/>
      <point x="1279" y="739"/>
      <point x="1252" y="739" type="curve" smooth="yes"/>
    </contour>
    <contour>
      <point x="532" y="739" type="line" smooth="yes"/>
      <point x="505" y="739"/>
      <point x="490" y="754"/>
      <point x="490" y="781" type="curve" smooth="yes"/>
      <point x="490" y="1531" type="line" smooth="yes"/>
      <point x="490" y="1544"/>
      <point x="486" y="1546"/>
      <point x="474" y="1546" type="curve" smooth="yes"/>
      <point x="121" y="1546" type="line" smooth="yes"/>
      <point x="94" y="1546"/>
      <point x="79" y="1568"/>
      <point x="79" y="1595" type="curve"/>
      <point x="80" y="1620"/>
      <point x="95" y="1639"/>
      <point x="121" y="1639" type="curve" smooth="yes"/>
      <point x="985" y="1639" type="line" smooth="yes"/>
      <point x="1012" y="1639"/>
      <point x="1027" y="1618"/>
      <point x="1027" y="1591" type="curve"/>
      <point x="1026" y="1566"/>
      <point x="1011" y="1546"/>
      <point x="985" y="1546" type="curve" smooth="yes"/>
      <point x="633" y="1546" type="line" smooth="yes"/>
      <point x="621" y="1546"/>
      <point x="617" y="1544"/>
      <point x="617" y="1531" type="curve" smooth="yes"/>
      <point x="617" y="781" type="line" smooth="yes"/>
      <point x="617" y="754"/>
      <point x="602" y="739"/>
      <point x="575" y="739" type="curve" smooth="yes"/>
    </contour>
  </outline>
</glyph>
<glyph name="minus" format="1">
  <advance width="1277"/>
  <unicode hex="2212"/>
  <outline>
    <contour>
      <point x="194" y="601" type="line" smooth="yes"/>
      <point x="151" y="601"/>
      <point x="127" y="625"/>
      <point x="127" y="668" type="curve" smooth="yes"/>
      <point x="127" y="715" type="line" smooth="yes"/>
      <point x="127" y="758"/>
      <point x="151" y="782"/>
      <point x="194" y="782" type="curve" smooth="yes"/>
      <point x="1084" y="782" type="line" smooth="yes"/>
      <point x="1127" y="782"/>
      <point x="1151" y="758"/>
      <point x="1151" y="715" type="curve" smooth="yes"/>
      <point x="1151" y="668" type="line" smooth="yes"/>
      <point x="1151" y="626"/>
      <point x="1127" y="601"/>
      <point x="1084" y="601" type="curve" smooth="yes"/>
    </contour>
  </outline>
</glyph>
<glyph name="integral" format="1">
  <advance width="1107"/>
  <unicode hex="222B"/>
  <outline>
    <contour>
      <point x="660.987" y="266.5" type="line" smooth="yes"/>
      <point x="660.979" y="-67.3916"/>
      <point x="528.433" y="-160"/>
      <point x="318" y="-160" type="curve" smooth="yes"/>
      <point x="159" y="-160"/>
      <point x="132" y="-127"/>
      <point x="116" y="-124" type="curve" smooth="yes"/>
      <point x="88" y="-117"/>
      <point x="66" y="-102"/>
      <point x="66" y="-74" type="curve" smooth="yes"/>
      <point x="66" y="-22" type="line" smooth="yes"/>
      <point x="66" y="15"/>
      <point x="74" y="22"/>
      <point x="108" y="22" type="curve" smooth="yes"/>
      <point x="113" y="22"/>
      <point x="228.209" y="-17.2461"/>
      <point x="294" y="-12" type="curve" smooth="yes"/>
      <point x="444.5" y="0"/>
      <point x="443" y="114"/>
      <point x="443" y="254" type="curve" smooth="yes"/>
      <point x="444" y="1041" type="line" smooth="yes"/>
      <point x="443" y="1381"/>
      <point x="576" y="1475"/>
      <point x="788" y="1475" type="curve" smooth="yes"/>
      <point x="947" y="1475"/>
      <point x="973" y="1441"/>
      <point x="989" y="1438" type="curve" smooth="yes"/>
      <point x="1017" y="1431"/>
      <point x="1039" y="1416"/>
      <point x="1039" y="1388" type="curve" smooth="yes"/>
      <point x="1039" y="1337" type="line" smooth="yes"/>
      <point x="1039" y="1300"/>
      <point x="1032" y="1293"/>
      <point x="998" y="1293" type="curve" smooth="yes"/>
      <point x="993" y="1293"/>
      <point x="907" y="1327"/>
      <point x="841" y="1327" type="curve" smooth="yes"/>
      <point x="674.5" y="1327"/>
      <point x="661" y="1200"/>
      <point x="661" y="1060" type="curve" smooth="yes"/>
    </contour>
  </outline>
</glyph>
<glyph name="lessequal" format="1">
  <advance width="1209"/>
  <unicode hex="2264"/>
  <outline>
    <contour>
      <point x="183" y="0" type="curve" smooth="yes"/>
      <point x="1007.5" y="0" type="line" smooth="yes"/>
      <point x="1051.5" y="0"/>
      <point x="1063.5" y="13"/>
      <point x="1063.5" y="57" type="curve" smooth="yes"/>
      <point x="1063.5" y="104" type="line" smooth="yes"/>
      <point x="1063.5" y="148"/>
      <point x="1051.5" y="161"/>
      <point x="1007.5" y="161" type="curve" smooth="yes"/>
      <point x="183" y="161" type="line" smooth="yes"/>
      <point x="139" y="161"/>
      <point x="123" y="148"/>
      <point x="123" y="104" type="curve" smooth="yes"/>
      <point x="123" y="57" type="line" smooth="yes"/>
      <point x="123" y="13"/>
      <point x="139" y="0"/>
    </contour>
    <contour>
      <point x="1042" y="247" type="curve" smooth="yes"/>
      <point x="1030" y="247"/>
      <point x="1018" y="256"/>
      <point x="998" y="265" type="curve" smooth="yes"/>
      <point x="188" y="554" type="line"/>
      <point x="143" y="574"/>
      <point x="122" y="620"/>
      <point x="122" y="660" type="curve" smooth="yes"/>
      <point x="122" y="762" type="line" smooth="yes"/>
      <point x="122" y="801"/>
      <point x="148" y="835"/>
      <point x="187" y="858" type="curve"/>
      <point x="998" y="1183" type="line" smooth="yes"/>
      <point x="1013.78" y="1189.32"/>
      <point x="1026" y="1195"/>
      <point x="1036" y="1195" type="curve" smooth="yes"/>
      <point x="1055" y="1195"/>
      <point x="1065" y="1181"/>
      <point x="1065" y="1153" type="curve" smooth="yes"/>
      <point x="1065" y="1078" type="line" smooth="yes"/>
      <point x="1065" y="1035"/>
      <point x="1043.87" y="1011.92"/>
      <point x="998" y="994" type="curve" smooth="yes"/>
      <point x="289" y="717" type="line" smooth="yes"/>
      <point x="283" y="714"/>
      <point x="280" y="709"/>
      <point x="280" y="705" type="curve" smooth="yes"/>
      <point x="280" y="701"/>
      <point x="282.64" y="695.135"/>
      <point x="289" y="693" type="curve" smooth="yes"/>
      <point x="998" y="455" type="line" smooth="yes"/>
      <point x="1044" y="432"/>
      <point x="1065" y="404"/>
      <point x="1065" y="361" type="curve" smooth="yes"/>
      <point x="1065" y="285" type="line" smooth="yes"/>
      <point x="1065" y="260"/>
      <point x="1057" y="247"/>
    </contour>
  </outline>
</glyph>
<glyph name="greaterequal" format="1">
  <advance width="1209"/>
  <unicode hex="2265"/>
  <outline>
    <contour>
      <point x="183" y="0" type="curve" smooth="yes"/>
      <point x="1008" y="0" type="line" smooth="yes"/>
      <point x="1052" y="0"/>
      <point x="1064" y="13"/>
      <point x="1064" y="57" type="curve" smooth="yes"/>
      <point x="1064" y="104" type="line" smooth="yes"/>
      <point x="1064" y="148"/>
      <point x="1052" y="161"/>
      <point x="1008" y="161" type="curve" smooth="yes"/>
      <point x="183" y="161" type="line" smooth="yes"/>
      <point x="139" y="161"/>
      <point x="123" y="148"/>
      <point x="123" y="104" type="curve" smooth="yes"/>
      <point x="123" y="57" type="line" smooth="yes"/>
      <point x="123" y="13"/>
      <point x="139" y="0"/>
    </contour>
    <contour>
      <point x="145" y="247" type="curve" smooth="yes"/>
      <point x="157" y="247"/>
      <point x="169" y="256"/>
      <point x="189" y="265" type="curve" smooth="yes"/>
      <point x="999" y="554" type="line"/>
      <point x="1044" y="574"/>
      <point x="1065" y="620"/>
      <point x="1065" y="660" type="curve" smooth="yes"/>
      <point x="1065" y="762" type="line" smooth="yes"/>
      <point x="1065" y="801"/>
      <point x="1039" y="835"/>
      <point x="1000" y="858" type="curve"/>
      <point x="189" y="1183" type="line" smooth="yes"/>
      <point x="173" y="1189"/>
      <point x="161" y="1195"/>
      <point x="151" y="1195" type="curve" smooth="yes"/>
      <point x="132" y="1195"/>
      <point x="122" y="1181"/>
      <point x="122" y="1153" type="curve" smooth="yes"/>
      <point x="122" y="1078" type="line" smooth="yes"/>
      <point x="122" y="1035"/>
      <point x="143" y="1012"/>
      <point x="189" y="994" type="curve" smooth="yes"/>
      <point x="898" y="717" type="line" smooth="yes"/>
      <point x="904" y="714"/>
      <point x="907" y="709"/>
      <point x="907" y="705" type="curve" smooth="yes"/>
      <point x="907" y="701"/>
      <point x="904" y="695"/>
      <point x="898" y="693" type="curve" smooth="yes"/>
      <point x="189" y="455" type="line" smooth="yes"/>
      <point x="143" y="432"/>
      <point x="122" y="404"/>
      <point x="122" y="361" type="curve" smooth="yes"/>
      <point x="122" y="285" type="line" smooth="yes"/>
      <point x="122" y="260"/>
      <point x="130" y="247"/>
    </contour>
  </outline>
</glyph>
